# xmcd
#
# Track frame offsets:
#	150
#	27895
#	51410
#	72970
#	104325
#	128365
#	147640
#	167382
#	188807
#	215222
#	238425
#
# Disc length: 3421 seconds
#
# Revision: 2
# Processed by: cddbd v1.5.2PL0 Copyright (c) Steve Scherf et al.
# Submitted via: EZCDAudioConverter 8.0.2.1
#
DISCID=a60d5b0b
DTITLE=Duy Khánh - Không Biết Hôm Nay Vì Sao Tôi Buồn
DYEAR=1994
DGENRE=Miscellaneous
TTITLE0=Duy Khánh - Đèn khuya
TTITLE1=Duy Khánh - Em sắp về chưa
TTITLE2=Duy Khánh - Lá thư gửi mẹ
TTITLE3=Duy Khánh - Lá thơ không gửi
TTITLE4=Duy Khánh - Một ngày gần đây
TTITLE5=Duy Khánh - Nõi buồn gác trọ
TTITLE6=Duy Khánh - Mẹ hoa đá
TTITLE7=Duy Khánh - Không bao giờ ngăn cách
TTITLE8=Duy Khánh - Mùa đông của anh
TTITLE9=Duy Khánh - Huyền thoại mẹ
TTITLE10=Soundtrack - Lá thư gửi mẹ
EXTD=
EXTT0=
EXTT1=
EXTT2=
EXTT3=
EXTT4=
EXTT5=
EXTT6=
EXTT7=
EXTT8=
EXTT9=
EXTT10=
PLAYORDER=
